<?xml version="1.0" standalone="no"?>
<!DOCTYPE svg PUBLIC "-//W3C//DTD SVG 20010904//EN"
 "http://www.w3.org/TR/2001/REC-SVG-20010904/DTD/svg10.dtd">
<svg version="1.0" xmlns="http://www.w3.org/2000/svg"
 width="170.000000pt" height="170.000000pt" viewBox="0 0 170.000000 170.000000"
 preserveAspectRatio="xMidYMid meet">
<metadata>
Created by potrace 1.16, written by Peter Selinger 2001-2019
</metadata>
<g transform="translate(0.000000,170.000000) scale(0.100000,-0.100000)"
fill="#000000" stroke="none">
<path d="M342 1674 c-113 -33 -234 -138 -267 -230 -35 -100 -43 -963 -10
-1097 25 -100 117 -211 210 -253 73 -33 234 -44 645 -44 383 0 468 8 543 48
65 35 139 118 179 200 l33 67 3 496 c3 485 2 498 -18 550 -34 85 -78 146 -141
195 -100 77 -82 75 -642 77 -343 2 -509 -1 -535 -9z m401 -532 c16 -18 61
-138 93 -247 l17 -59 47 136 c66 191 63 188 155 188 64 0 76 -3 85 -20 7 -12
9 -108 8 -267 l-3 -248 -65 0 -65 0 2 139 c2 81 -1 136 -6 130 -5 -5 -26 -63
-47 -129 -21 -66 -43 -126 -48 -133 -6 -9 -29 -12 -69 -10 l-60 3 -19 70 c-10
39 -29 101 -41 140 l-22 70 -5 -140 -5 -140 -60 0 -60 0 -3 254 c-2 179 1 258
9 267 18 22 141 19 162 -4z"/>
</g>
</svg>
